<svg width="40" height="40" viewBox="0 0 40 40" fill="none" xmlns="http://www.w3.org/2000/svg">
<rect x="0.5" y="0.5" width="39" height="39" rx="19.5" fill="white"/>
<rect x="0.5" y="0.5" width="39" height="39" rx="19.5" stroke="#D0D5DD"/>
<path d="M22.3867 8.54239V26.1869C22.3867 28.1624 23.7488 29.2604 25.1933 29.2604C26.5298 29.2604 28.0012 28.3259 28.0012 26.1869V8.67587C28.0012 6.86687 26.6633 5.73438 25.1933 5.73438C23.7233 5.73438 22.3867 6.98389 22.3867 8.54239Z" fill="#F8AB00"/>
<path d="M15.0332 17.494V26.1835C15.0332 28.159 16.3952 29.257 17.8412 29.257C19.1777 29.257 20.6477 28.3225 20.6477 26.1835V17.629C20.6477 15.82 19.3112 14.6875 17.8412 14.6875C16.3712 14.6875 15.0332 15.937 15.0332 17.494Z" fill="#E37300"/>
<path d="M13.2981 26.4529C13.2981 28.0024 12.0411 29.2595 10.4901 29.2595C8.94055 29.2595 7.68359 28.0024 7.68359 26.4529C7.68359 24.9034 8.94055 23.6465 10.4901 23.6465C12.0411 23.6465 13.2981 24.9034 13.2981 26.4529Z" fill="#E37300"/>
</svg>
