<svg width="40" height="40" viewBox="0 0 40 40" fill="none" xmlns="http://www.w3.org/2000/svg">
<circle cx="20" cy="20" r="20" fill="#F2F2F2"/>
<circle cx="20" cy="20" r="20" fill="url(#paint0_radial_4320_2572)"/>
<circle cx="20" cy="20" r="20" fill="#1877F2"/>
<circle cx="20" cy="20" r="20" fill="url(#paint1_linear_4320_2572)"/>
<g clip-path="url(#clip0_4320_2572)">
<path d="M8.90096 22.8846C8.90096 23.9489 9.13465 24.7661 9.43996 25.2604C9.84021 25.908 10.4374 26.1825 11.0464 26.1825C11.8314 26.1825 12.5498 25.9875 13.934 24.0729C15.043 22.5383 16.3499 20.3845 17.229 19.0342L18.7178 16.7465C19.7522 15.1576 20.9494 13.3915 22.3219 12.1943C23.4428 11.217 24.6517 10.6742 25.8682 10.6742C27.9108 10.6742 29.8565 11.8578 31.3453 14.0777C32.9749 16.509 33.7659 19.5712 33.7659 22.7315C33.7659 24.6102 33.3956 25.9904 32.7654 27.081C32.1566 28.1356 30.9702 29.1894 28.9741 29.1894V26.1825C30.6832 26.1825 31.1096 24.6119 31.1096 22.8147C31.1096 20.2536 30.5125 17.4115 29.197 15.3806C28.2637 13.94 27.0539 13.0598 25.7229 13.0598C24.2834 13.0598 23.125 14.1457 21.823 16.0815C21.1309 17.1099 20.4203 18.3633 19.6224 19.7776L18.7442 21.3336C16.9799 24.4617 16.5329 25.1743 15.6509 26.3501C14.1048 28.409 12.7845 29.1896 11.0464 29.1896C8.98442 29.1896 7.68062 28.2966 6.87329 26.9512C6.21368 25.8547 5.89006 24.4161 5.89006 22.777L8.90096 22.8846Z" fill="white"/>
<path d="M8.26799 14.29C9.64825 12.1622 11.6406 10.6742 13.9252 10.6742C15.2484 10.6742 16.5639 11.0659 17.9375 12.1873C19.44 13.4137 21.0416 15.433 23.0394 18.7608L23.7556 19.9551C25.4851 22.8361 26.4691 24.3183 27.0449 25.0172C27.7854 25.9148 28.3041 26.1825 28.9779 26.1825C30.6868 26.1825 31.1133 24.6119 31.1133 22.8147L33.7695 22.7315C33.7695 24.6102 33.3992 25.9904 32.7691 27.081C32.1602 28.1356 30.9738 29.1894 28.9778 29.1894C27.737 29.1894 26.6378 28.92 25.4221 27.7733C24.4877 26.893 23.3952 25.3294 22.5546 23.9238L20.0547 19.7477C18.8001 17.6518 17.6496 16.0892 16.9837 15.3815C16.2672 14.6204 15.3464 13.7015 13.8768 13.7015C12.6873 13.7015 11.6772 14.5363 10.832 15.8129L8.26799 14.29Z" fill="white"/>
<path d="M13.8729 13.7016C12.6835 13.7016 11.6733 14.5363 10.8281 15.8129C9.63273 17.6168 8.90096 20.3041 8.90096 22.8846C8.90096 23.9489 9.13465 24.7661 9.43996 25.2604L6.87293 26.9512C6.21386 25.8547 5.89006 24.4161 5.89006 22.777C5.89006 19.7961 6.70816 16.6892 8.26414 14.29C9.64439 12.1622 11.6367 10.6742 13.9214 10.6742L13.8729 13.7016Z" fill="white"/>
</g>
<defs>
<radialGradient id="paint0_radial_4320_2572" cx="0" cy="0" r="1" gradientUnits="userSpaceOnUse" gradientTransform="translate(5.31459 40.1886) scale(52.2191 52.214)">
<stop offset="0.09" stop-color="#FA8F21"/>
<stop offset="0.78" stop-color="#D82D7E"/>
</radialGradient>
<linearGradient id="paint1_linear_4320_2572" x1="5.55137" y1="24.5026" x2="35.6937" y2="25.6079" gradientUnits="userSpaceOnUse">
<stop stop-color="#0064E1"/>
<stop offset="0.4" stop-color="#0064E1"/>
<stop offset="0.83" stop-color="#0073EE"/>
<stop offset="1" stop-color="#0082FB"/>
</linearGradient>
<clipPath id="clip0_4320_2572">
<rect width="28" height="18.6667" fill="white" transform="translate(5.75262 10.6667)"/>
</clipPath>
</defs>
</svg>
